<?xml version="1.0" encoding="utf-8"?>
<!-- Generator: Adobe Illustrator 15.0.0, SVG Export Plug-In . SVG Version: 6.00 Build 0)  -->
<!DOCTYPE svg PUBLIC "-//W3C//DTD SVG 1.1//EN" "http://www.w3.org/Graphics/SVG/1.1/DTD/svg11.dtd">
<svg version="1.1" id="Layer_1" xmlns="http://www.w3.org/2000/svg" xmlns:xlink="http://www.w3.org/1999/xlink" x="0px" y="0px"
	 width="610px" height="30px" viewBox="0 0 610 30" enable-background="new 0 0 610 30" xml:space="preserve">
<g>
	<path d="M1.42,15.077V15c0-7.562,5.785-13.964,13.926-13.964c4.706,0,7.599,1.311,10.377,3.664l-3.009,3.588
		c-2.083-1.775-4.128-2.894-7.562-2.894c-4.976,0-8.757,4.358-8.757,9.528V15c0,5.555,3.665,9.644,9.181,9.644
		c2.546,0,4.861-0.811,6.521-2.045v-5.053h-6.905v-4.128h11.495v11.341c-2.662,2.275-6.479,4.205-11.264,4.205
		C6.975,28.964,1.42,22.946,1.42,15.077"/>
	<path d="M41.767,15.077V15c0-7.6,5.862-13.964,14.157-13.964c8.294,0,14.079,6.287,14.079,13.887V15
		c0,7.599-5.862,13.964-14.156,13.964S41.767,22.676,41.767,15.077 M65.027,15.077V15c0-5.247-3.819-9.605-9.181-9.605
		c-5.362,0-9.104,4.282-9.104,9.528V15c0,5.245,3.819,9.604,9.182,9.604C61.285,24.604,65.027,20.323,65.027,15.077"/>
	<path d="M86.017,1.499h10.068c8.487,0,14.35,5.824,14.35,13.424V15c0,7.599-5.862,13.501-14.35,13.501H86.017V1.499z
		 M96.085,24.181c5.671,0,9.374-3.819,9.374-9.104V15c0-5.284-3.703-9.182-9.374-9.182h-5.324v18.362H96.085z"/>
	<path d="M126.359,1.499h10.068c8.486,0,14.35,5.824,14.35,13.424V15c0,7.599-5.863,13.501-14.35,13.501h-10.068V1.499z
		 M136.428,24.181c5.671,0,9.374-3.819,9.374-9.104V15c0-5.284-3.703-9.182-9.374-9.182h-5.324v18.362H136.428z"/>
	<path d="M174.366,1.306h4.398l11.882,27.195h-5.017l-2.737-6.52h-12.77l-2.776,6.52h-4.861L174.366,1.306z M181.156,17.776
		l-4.668-10.8l-4.629,10.8H181.156z"/>
	<path d="M205.215,1.498h12.036c3.396,0,6.057,1.003,7.793,2.701c1.427,1.466,2.237,3.471,2.237,5.825v0.076
		c0,4.437-2.662,7.098-6.442,8.178l7.29,10.223h-5.593l-6.635-9.412h-5.941v9.412h-4.745V1.498z M216.904,14.884
		c3.395,0,5.555-1.773,5.555-4.513v-0.078c0-2.892-2.083-4.474-5.594-4.474h-6.905v9.064H216.904z"/>
	<path d="M243.398,1.499h10.067c8.487,0,14.351,5.824,14.351,13.424V15c0,7.599-5.863,13.501-14.351,13.501h-10.067V1.499z
		 M253.466,24.181c5.671,0,9.374-3.819,9.374-9.104V15c0-5.284-3.703-9.182-9.374-9.182h-5.323v18.362H253.466z"/>
	<polygon points="294.702,1.498 299.446,1.498 299.446,24.18 313.643,24.18 313.643,28.501 294.702,28.501 	"/>
	<rect x="328.452" y="1.498" width="4.744" height="27.003"/>
	<polygon points="356.538,5.896 347.975,5.896 347.975,1.498 369.886,1.498 369.886,5.896 361.321,5.896 361.321,28.501 
		356.538,28.501 	"/>
	<polygon points="392.306,5.896 383.742,5.896 383.742,1.498 405.653,1.498 405.653,5.896 397.089,5.896 397.089,28.501 
		392.306,28.501 	"/>
	<polygon points="420.377,1.498 425.122,1.498 425.122,24.18 439.318,24.18 439.318,28.501 420.377,28.501 	"/>
	<polygon points="454.007,1.498 474.028,1.498 474.028,5.741 458.752,5.741 458.752,12.762 472.292,12.762 472.292,17.005 
		458.752,17.005 458.752,24.258 474.222,24.258 474.222,28.501 454.007,28.501 	"/>
	<polygon points="490.242,1.498 510.34,1.498 510.34,5.819 494.987,5.819 494.987,13.188 508.604,13.188 508.604,17.507 
		494.987,17.507 494.987,28.501 490.242,28.501 	"/>
	<path d="M532.532,1.306h4.397l11.882,27.195h-5.015l-2.739-6.52h-12.769l-2.777,6.52h-4.861L532.532,1.306z M539.321,17.776
		l-4.668-10.8l-4.629,10.8H539.321z"/>
	<rect x="563.501" y="1.498" width="4.745" height="27.003"/>
	<path d="M585.666,1.498h12.036c3.395,0,6.057,1.003,7.793,2.701c1.427,1.466,2.236,3.471,2.236,5.825v0.076
		c0,4.437-2.662,7.098-6.441,8.178l7.29,10.223h-5.594l-6.635-9.412h-5.94v9.412h-4.745V1.498z M597.354,14.884
		c3.396,0,5.555-1.773,5.555-4.513v-0.078c0-2.892-2.082-4.474-5.594-4.474h-6.904v9.064H597.354z"/>
</g>
</svg>
