<svg id="Layer_1" data-name="Layer 1" xmlns="http://www.w3.org/2000/svg" viewBox="0 0 1196.94 275.74"><defs><style>.cls-1{fill:#fff;}</style></defs><title>Musha Interiors</title><circle cx="544.59" cy="136.85" r="127.76"/><path class="cls-1" d="M544.93,123.24c.43-.48.81-.87,1.16-1.29l48.39-56.87a10.08,10.08,0,0,1,1.13-1.22,1.56,1.56,0,0,1,2.13,0,1.1,1.1,0,0,1,.3,1.72,7.87,7.87,0,0,1-.72.92L547,126.08c-2,2.38-1.81,2.5-4,0L496.68,72c-.35-.41-.73-.8-1.28-1.4-.07.62-.11,1-.14,1.33,0,.16,0,.33,0,.5q0,16.66-.07,33.33,0,28.5-.07,57,0,10.33,0,20.66c0,.39,0,.78,0,1.17a1.47,1.47,0,0,1-1.25,1.54,1.77,1.77,0,0,1-1.91-1,3.18,3.18,0,0,1-.21-1c0-.39,0-.78,0-1.17V66.68a7.85,7.85,0,0,1,.11-1.82c.34-1.37,1.3-1.66,2.31-.7.8.77,1.52,1.63,2.24,2.47l47.3,55.17C544,122.26,544.45,122.7,544.93,123.24Z"/><path class="cls-1" d="M594.46,106.84c-.37.4-.74.79-1.09,1.2l-45.24,52.73a9.2,9.2,0,0,1-.77.87,1.51,1.51,0,0,1-2.23.07,1.49,1.49,0,0,1-.21-2.09,11.76,11.76,0,0,1,.93-1.18q18.2-21.27,36.4-42.53c4.22-4.94,8.49-9.84,12.74-14.75a7.87,7.87,0,0,1,1.3-1.28,1.06,1.06,0,0,1,1.76.47,3.88,3.88,0,0,1,.31,1.27c0,.61,0,1.22,0,1.83v80.31a11.16,11.16,0,0,1-.06,1.83,1.69,1.69,0,0,1-1.89,1.49c-.93-.06-1.35-.54-1.43-1.68,0-.28,0-.56,0-.84q0-8.4,0-16.82,0-20.75-.07-41.49,0-8.91-.07-17.83V107Z"/><path d="M80.5,127.49c-.11-.48-.29-1.8-.55-4-.22-1.8-.42-3.3-.59-4.49a29.63,29.63,0,0,1-1.08,4.24,34.74,34.74,0,0,1-1.76,4.32l-16.21,33L44.09,126.9c-.68-1.38-1.26-2.72-1.75-4s-.93-2.59-1.3-3.86a37.46,37.46,0,0,1-.31,4.09,45,45,0,0,1-.83,4.47L33.25,158.1H24L38.63,93.49l18.29,39.13q.42.93,1.29,3.09c.58,1.44,1.28,3.21,2.1,5.33a66.15,66.15,0,0,1,2.79-6.77c.34-.74.6-1.3.76-1.7L81.73,93.49l15,64.61H87.36Z"/><path d="M104.51,96.12h9.95v37.64q0,8.38,3.88,12.59t11.57,4.22q7.67,0,11.54-4.22t3.88-12.59V96.12H155.4v38.57q0,12.57-6.35,18.82t-19.14,6.25q-12.78,0-19.09-6.23t-6.31-18.84Z"/><path d="M165.73,145.7l8.05-3.73A11.06,11.06,0,0,0,178,148.3a13,13,0,0,0,7.79,2.18,9.94,9.94,0,0,0,7.13-2.5,8.73,8.73,0,0,0,2.65-6.69q0-5.46-9.06-9.73-1.28-.65-1.95-.93-10.25-5-13.65-9a14.86,14.86,0,0,1-3.41-9.89,15.85,15.85,0,0,1,5.14-12.28q5.14-4.69,13.49-4.7a22.69,22.69,0,0,1,11.47,2.65A13.92,13.92,0,0,1,204,105L196.09,109a13,13,0,0,0-4.08-4.27,9.59,9.59,0,0,0-5.11-1.36,9.37,9.37,0,0,0-6.45,2.12,7.18,7.18,0,0,0-2.4,5.67q0,5.59,10.5,10.42l1.28.59q9.18,4.23,12.61,8.28a15,15,0,0,1,3.43,10.1q0,8.8-5.54,14t-15,5.19q-7.92,0-13-3.65A17.05,17.05,0,0,1,165.73,145.7Z"/><path d="M216.88,158.1v-62H227V119h30.48V96.12h10.08v62H257.44V128H227v30.1Z"/><path d="M322.69,158.1l-7-16H291.1l-7.2,16H273.32l30-64.44,30,64.44Zm-27.86-24.34H312.1l-6.35-14.14c-.37-.91-.75-1.94-1.14-3.11s-.79-2.48-1.19-3.92c-.34,1.35-.7,2.62-1.08,3.79s-.77,2.25-1.16,3.24Z"/><path d="M748.93,158.1v-62H759v62Z"/><path d="M773.49,158.1V93.66l39.38,37.9q1.61,1.6,3.26,3.43t3.47,4.1v-43h9.31v64.4L788.73,122q-1.61-1.58-3.11-3.31c-1-1.15-2-2.37-2.86-3.64v43.1Z"/><path d="M863.17,104.67V158.1H853.09V104.67H836.62V96.12h42.93v8.55Z"/><path d="M887.26,158.1v-62h34.59v8.55H897.33v15.54h24.52v8.85H897.33v20h24.52v9Z"/><path d="M942.85,130.37V158.1h-9.44v-62h14.06a44.57,44.57,0,0,1,9.59.8,15.15,15.15,0,0,1,5.82,2.67,14.71,14.71,0,0,1,4.44,5.8,19,19,0,0,1,1.57,7.79q0,7.45-3.6,11.67t-10.63,5.06L976,158.1H964.61L944,130.37Zm.64-7.83h1.82q8,0,10.62-1.86t2.63-6.61q0-5.11-2.82-7.22t-10.43-2.09h-1.82Z"/><path d="M982.14,158.1v-62h10.08v62Z"/><path d="M1070.25,127.24a31.56,31.56,0,0,1-9.7,23,33.85,33.85,0,0,1-10.79,7.07,33,33,0,0,1-12.62,2.46,33.49,33.49,0,0,1-12.76-2.48,32.84,32.84,0,0,1-10.74-7.05,31.45,31.45,0,0,1-7.19-10.46,32.25,32.25,0,0,1,7.19-35.61,33,33,0,0,1,10.76-7,34.72,34.72,0,0,1,25.42,0,32.93,32.93,0,0,1,10.73,7,32.48,32.48,0,0,1,7.22,10.61A31.76,31.76,0,0,1,1070.25,127.24Zm-10.5,0a23.66,23.66,0,0,0-1.71-8.94,23.2,23.2,0,0,0-4.94-7.53,21.76,21.76,0,0,0-7.26-5,22.5,22.5,0,0,0-17.4,0,23.08,23.08,0,0,0-12.26,12.53,23.94,23.94,0,0,0-1.69,9,23.48,23.48,0,0,0,1.69,8.89,23.11,23.11,0,0,0,4.91,7.49,22.09,22.09,0,0,0,16.05,6.78,21.8,21.8,0,0,0,8.62-1.74,22.52,22.52,0,0,0,7.34-5,23.17,23.17,0,0,0,6.65-16.38Z"/><path d="M1091.25,130.37V158.1h-9.44v-62h14.06a44.57,44.57,0,0,1,9.59.8,15.15,15.15,0,0,1,5.82,2.67,14.71,14.71,0,0,1,4.44,5.8,19,19,0,0,1,1.57,7.79q0,7.45-3.6,11.67t-10.63,5.06l21.34,28.19H1113l-20.62-27.73Zm.64-7.83h1.82q8,0,10.62-1.86t2.63-6.61q0-5.11-2.82-7.22t-10.43-2.09h-1.82Z"/><path d="M1126.82,145.7l8-3.73a11.06,11.06,0,0,0,4.19,6.33,13,13,0,0,0,7.79,2.18A10,10,0,0,0,1154,148a8.76,8.76,0,0,0,2.64-6.69q0-5.46-9.06-9.73c-.84-.43-1.49-.74-1.94-.93q-10.26-5-13.66-9a14.86,14.86,0,0,1-3.41-9.89,15.86,15.86,0,0,1,5.15-12.28q5.15-4.69,13.48-4.7a22.73,22.73,0,0,1,11.48,2.65,14,14,0,0,1,6.39,7.6l-7.88,4.06a13,13,0,0,0-4.08-4.27,9.53,9.53,0,0,0-5.1-1.36,9.4,9.4,0,0,0-6.46,2.12,7.2,7.2,0,0,0-2.39,5.67q0,5.59,10.5,10.42l1.27.59q9.18,4.23,12.62,8.28a15.09,15.09,0,0,1,3.42,10.1q0,8.8-5.54,14t-15,5.19q-7.92,0-13-3.65A17,17,0,0,1,1126.82,145.7Z"/></svg>